<?xml version="1.0" encoding="UTF-8"?>
<svg version="1.1" xmlns="http://www.w3.org/2000/svg" width="600" height="600">
<path d="M0 0 C40.4450978 -0.83240516 80.6106099 10.19720805 116.1015625 29.18359375 C117.25785156 29.7971875 118.41414063 30.41078125 119.60546875 31.04296875 C145.76759797 45.44850975 169.6258454 65.76014224 188.1015625 89.18359375 C188.88273437 90.1478125 189.66390625 91.11203125 190.46875 92.10546875 C222.37231317 132.26522559 238.69805351 181.22920312 241.1015625 232.18359375 C241.13620605 232.89483398 241.17084961 233.60607422 241.20654297 234.33886719 C243.78964231 296.7503978 217.80374657 357.70223126 176.1015625 403.18359375 C168.62057672 411.17145818 160.78065064 418.49865641 152.1015625 425.18359375 C151.51536133 425.64088867 150.92916016 426.09818359 150.32519531 426.56933594 C140.63812351 434.10924765 130.68644387 440.96565446 120.1015625 447.18359375 C118.42320312 448.17939453 118.42320312 448.17939453 116.7109375 449.1953125 C96.20824884 460.73392609 73.99751592 468.1318312 51.1015625 473.18359375 C49.89282471 473.45357178 49.89282471 473.45357178 48.65966797 473.72900391 C31.36322198 477.47869113 12.76615253 479.04401216 -4.8984375 478.18359375 C-5.76952148 478.14250488 -6.64060547 478.10141602 -7.53808594 478.05908203 C-44.41290781 476.12577898 -79.35704765 466.62819558 -111.8984375 449.18359375 C-112.48786133 448.8695459 -113.07728516 448.55549805 -113.68457031 448.23193359 C-128.65498845 440.17960005 -142.19605264 430.44099832 -154.8984375 419.18359375 C-155.76984375 418.42304688 -156.64125 417.6625 -157.5390625 416.87890625 C-167.52606129 408.05391675 -176.75339767 398.74453523 -184.8984375 388.18359375 C-185.32092773 387.63751465 -185.74341797 387.09143555 -186.17871094 386.52880859 C-193.85624408 376.53792086 -200.56511414 366.06953808 -206.8984375 355.18359375 C-207.26565918 354.56049316 -207.63288086 353.93739258 -208.01123047 353.29541016 C-238.30080762 301.43749155 -243.80394041 235.84400453 -229.17822266 178.35253906 C-227.61097578 172.5643279 -225.82558507 166.86130543 -223.8984375 161.18359375 C-223.66543945 160.49152832 -223.43244141 159.79946289 -223.19238281 159.08642578 C-211.57329421 125.12230572 -191.46963512 96.05606975 -166.8984375 70.18359375 C-166.11339844 69.35601562 -165.32835937 68.5284375 -164.51953125 67.67578125 C-159.01861543 62.02725588 -153.12411053 57.01155934 -146.8984375 52.18359375 C-146.24649414 51.6716748 -145.59455078 51.15975586 -144.92285156 50.63232422 C-102.59016375 17.59429632 -53.16993764 2.50399506 0 0 Z " fill="#999999" transform="translate(297.8984375,60.81640625)"/>
<path d="M0 0 C1.58332626 0.00114807 1.58332626 0.00114807 3.19863892 0.00231934 C19.15838 0.04405957 34.03534978 1.00573502 49.4375 5.5 C51.32082031 5.98339844 51.32082031 5.98339844 53.2421875 6.4765625 C71.05912516 11.39010646 87.63779961 20.26212617 101.4375 32.5 C102.48357422 33.42039062 102.48357422 33.42039062 103.55078125 34.359375 C119.60706925 49.41817817 128.80298623 70.3107153 133.4375 91.5 C133.80488281 93.16289062 133.80488281 93.16289062 134.1796875 94.859375 C135.57275919 102.6834763 135.78883669 110.63170424 136 118.5625 C136.0513208 119.65828369 136.1026416 120.75406738 136.15551758 121.88305664 C136.24184499 129.46518776 136.24184499 129.46518776 134.06567383 132.26489258 C132.24825142 133.62827434 130.51326308 134.58259505 128.4375 135.5 C127.40753906 135.97566406 126.37757813 136.45132813 125.31640625 136.94140625 C113.5709041 140.91191169 101.71337022 142.90454079 89.4375 144.5 C88.08104433 144.6866109 86.72459934 144.87329953 85.36816406 145.06005859 C34.23294397 151.91195224 -20.34823663 151.23420415 -71.6875 146.75 C-72.58973297 146.67177002 -73.49196594 146.59354004 -74.42153931 146.51293945 C-111.90220522 143.10540721 -111.90220522 143.10540721 -125.5625 136.5 C-126.31998535 136.15130859 -127.0774707 135.80261719 -127.85791016 135.44335938 C-131.49544489 133.47681492 -134.09352812 132.04580976 -135.33325195 127.95947266 C-135.56429579 124.84315333 -135.49937993 121.86927691 -135.3125 118.75 C-135.27600342 117.63761963 -135.23950684 116.52523926 -135.2019043 115.37915039 C-133.81212631 82.49563007 -122.33191632 52.62142025 -97.875 29.9375 C-84.5564651 18.76880735 -68.7337855 11.03179308 -52.125 6.1875 C-51.3405249 5.95716064 -50.5560498 5.72682129 -49.74780273 5.48950195 C-33.23109758 0.97017054 -17.04628355 -0.07146799 0 0 Z " fill="#FEFEFE" transform="translate(299.5625,306.5)"/>
<path d="M0 0 C13.4027602 11.2908101 23.25150394 27.59622035 26 45 C27.73798288 66.41723777 24.50060164 86.11696069 11 103.4375 C9.68415345 104.97348817 8.35211489 106.49584006 7 108 C6.48179687 108.61101562 5.96359375 109.22203125 5.4296875 109.8515625 C-5.72767685 122.13027 -22.99615941 130.0949803 -39.42529297 131.15673828 C-62.07822825 132.01294609 -80.03516533 126.52542589 -97.4921875 111.9140625 C-107.44145765 102.65332316 -113.88288339 90.84738799 -118 78 C-118.36609375 76.98164063 -118.7321875 75.96328125 -119.109375 74.9140625 C-120.61743119 69.50629628 -120.32841799 63.88061311 -120.3125 58.3125 C-120.32861328 57.20455078 -120.34472656 56.09660156 -120.36132812 54.95507812 C-120.36762795 44.17607442 -118.313949 34.4473998 -113.3125 24.875 C-112.96292236 24.19614746 -112.61334473 23.51729492 -112.25317383 22.81787109 C-102.36887352 4.19257891 -86.22872957 -7.7122332 -66.4453125 -14.0546875 C-43.44983447 -20.36410437 -18.74976841 -14.32435723 0 0 Z " fill="#FEFEFE" transform="translate(347,161)"/>
</svg>
